<?xml version="1.0" encoding="utf-8"?>
<!-- Generator: Adobe Illustrator 19.2.1, SVG Export Plug-In . SVG Version: 6.00 Build 0)  -->
<svg version="1.1" id="Layer_1" xmlns="http://www.w3.org/2000/svg" xmlns:xlink="http://www.w3.org/1999/xlink" x="0px" y="0px"
	 viewBox="0 0 48 48" style="enable-background:new 0 0 48 48;" xml:space="preserve">
<style type="text/css">
	.st0{fill:#6D6E71;}
	.st1{fill:#211F1F;}
	.st2{fill:#221F1F;}
</style>
<rect x="-642.2" y="583.8" class="st0" width="879.1" height="465"/>
<g>
	<g>
		<path class="st1" d="M35.9,22H12.1c-0.1,0-0.2-0.1-0.2-0.2v-1.5c0-0.1,0.1-0.2,0.2-0.2h23.8c0.1,0,0.2,0.1,0.2,0.2v1.5
			C36.1,21.9,36,22,35.9,22z"/>
	</g>
	<g>
		<path class="st1" d="M29.9,28H18.1c-0.1,0-0.2-0.1-0.2-0.2v-1.5c0-0.1,0.1-0.2,0.2-0.2h11.8c0.1,0,0.2,0.1,0.2,0.2v1.5
			C30.1,27.9,30,28,29.9,28z"/>
	</g>
</g>
<g>
	<path class="st2" d="M42,13.2v21.7H6V13.2H42 M42.8,11.2H5.2c-0.7,0-1.2,0.5-1.2,1.2v23.3c0,0.7,0.5,1.2,1.2,1.2h37.6
		c0.7,0,1.2-0.5,1.2-1.2V12.3C44,11.7,43.5,11.2,42.8,11.2L42.8,11.2z"/>
</g>
</svg>
