<?xml version="1.0" encoding="utf-8"?>
<!-- Generator: Adobe Illustrator 19.2.1, SVG Export Plug-In . SVG Version: 6.00 Build 0)  -->
<svg version="1.1" id="Layer_1" xmlns="http://www.w3.org/2000/svg" xmlns:xlink="http://www.w3.org/1999/xlink" x="0px" y="0px"
	 viewBox="0 0 48 48" style="enable-background:new 0 0 48 48;" xml:space="preserve">
<style type="text/css">
	.st0{display:none;fill:#231F20;}
	.st1{display:none;}
	.st2{display:inline;}
	.st3{stroke:#231F20;stroke-width:2;stroke-miterlimit:10;}
	.st4{fill:none;stroke:#231F20;stroke-width:2;stroke-linecap:round;stroke-linejoin:round;stroke-miterlimit:10;}
	.st5{display:inline;fill:#231F20;}
	
		.st6{display:inline;fill:#231F20;stroke:#231F20;stroke-width:2;stroke-linecap:round;stroke-linejoin:round;stroke-miterlimit:10;}
	.st7{display:none;fill:none;stroke:#231F20;stroke-width:2;stroke-linecap:round;stroke-linejoin:round;stroke-miterlimit:10;}
	.st8{fill:#231F20;}
</style>
<polygon class="st0" points="72.3,20 70,20.7 70,22 73,22 "/>
<g class="st1">
	<g class="st2">
		<line class="st3" x1="24" y1="8" x2="24" y2="40"/>
		<polyline class="st4" points="19,13 24,8 29,13 24,13 24,8 		"/>
		<polyline class="st4" points="29,35 24,40 19,35 24,35 24,40 		"/>
	</g>
	<polygon class="st5" points="26.3,10 24,10.7 24,12 27,12 	"/>
	<polygon class="st5" points="24.3,36.3 21.9,34.5 20.6,35.6 22.9,38.6 	"/>
</g>
<g class="st1">
	<line class="st6" x1="7" y1="16" x2="41" y2="16"/>
	<line class="st6" x1="7" y1="24" x2="41" y2="24"/>
	<line class="st6" x1="7" y1="32" x2="41" y2="32"/>
</g>
<path class="st7" d="M17,17v-3.3c0-1-0.8-1.8-1.8-1.8H5v4v22h12h26V17H17z"/>
<g>
	<path class="st8" d="M5,23c-0.5,0-1,0.5-1,1s0.5,1,1,1h14.1C19,24.7,19,24.3,19,24c0-0.3,0-0.7,0.1-1H5z"/>
	<path class="st8" d="M42,23H27.9c0.1,0.3,0.1,0.7,0.1,1c0,0.3,0,0.7-0.1,1H42c0.5,0,1-0.5,1-1S42.5,23,42,23z"/>
	<path class="st8" d="M23.5,21.5c-1,0-1.9,0.6-2.3,1.5c-0.1,0.3-0.2,0.6-0.2,1c0,0.3,0.1,0.7,0.2,1c0.4,0.9,1.3,1.5,2.3,1.5
		c1,0,1.9-0.6,2.3-1.5c0.1-0.3,0.2-0.7,0.2-1c0-0.4-0.1-0.7-0.2-1C25.4,22.1,24.5,21.5,23.5,21.5z"/>
</g>
</svg>
