<?xml version="1.0" encoding="utf-8"?>
<!-- Generator: Adobe Illustrator 19.2.1, SVG Export Plug-In . SVG Version: 6.00 Build 0)  -->
<svg version="1.1" id="Layer_1" xmlns="http://www.w3.org/2000/svg" xmlns:xlink="http://www.w3.org/1999/xlink" x="0px" y="0px"
	 viewBox="0 0 48 48" style="enable-background:new 0 0 48 48;" xml:space="preserve">
<style type="text/css">
	.st0{fill:#6D6E71;}
	.st1{fill:#211F1F;}
</style>
<rect x="-642.2" y="583.8" class="st0" width="879.1" height="465"/>
<path class="st1" d="M19.6,27.2l-1.1,1.1c-0.1,0.1-0.1,0.2,0,0.3l5.4,5.4c0.1,0.1,0.2,0.1,0.3,0l5.4-5.4c0.1-0.1,0.1-0.2,0-0.3
	l-1.1-1.1c-0.1-0.1-0.2-0.1-0.3,0L25.3,30c-0.1,0.1-0.3,0-0.3-0.1V18.6c0-0.2,0.2-0.3,0.3-0.1l2.8,2.8c0.1,0.1,0.2,0.1,0.3,0
	l1.1-1.1c0.1-0.1,0.1-0.2,0-0.3l-5.4-5.4c-0.1-0.1-0.2-0.1-0.3,0l-5.4,5.4c-0.1,0.1-0.1,0.2,0,0.3l1.1,1.1c0.1,0.1,0.2,0.1,0.3,0
	l2.8-2.8c0.1-0.1,0.3,0,0.3,0.1v11.3c0,0.2-0.2,0.3-0.3,0.1l-2.8-2.8C19.8,27.1,19.6,27.1,19.6,27.2z"/>
<g>
	<path class="st1" d="M31.8,9H16.2C16.1,9,16,9.1,16,9.2v1.6c0,0.1,0.1,0.2,0.2,0.2h15.6c0.1,0,0.2-0.1,0.2-0.2V9.2
		C32,9.1,31.9,9,31.8,9z"/>
	<path class="st1" d="M31.8,38H16.2c-0.1,0-0.2,0.1-0.2,0.2v1.6c0,0.1,0.1,0.2,0.2,0.2h15.6c0.1,0,0.2-0.1,0.2-0.2v-1.6
		C32,38.1,31.9,38,31.8,38z"/>
</g>
</svg>
